HIERARCHY
ROOT Hips
{
	OFFSET 0.00 0.00 0.00
	CHANNELS 6 Xposition Yposition Zposition Xrotation Yrotation Zrotation
	JOINT Spine
	{
		OFFSET 0.00000 1.66264 2.49395
		CHANNELS 3 Xrotation Yrotation Zrotation
		JOINT Spine1
		{
			OFFSET 0.00000 0.57743 3.27475
			CHANNELS 3 Xrotation Yrotation Zrotation
			JOINT Spine2
			{
				OFFSET 0.00000 0.28982 3.31262
				CHANNELS 3 Xrotation Yrotation Zrotation
				JOINT Spine3
				{
					OFFSET 0.00000 0.00000 3.32527
					CHANNELS 3 Xrotation Yrotation Zrotation
					JOINT Neck
					{
						OFFSET 0.00000 -1.24697 8.72884
						CHANNELS 3 Xrotation Yrotation Zrotation
						JOINT Head
						{
							OFFSET 0.00000 -0.79396 4.50279
							CHANNELS 3 Xrotation Yrotation Zrotation
							End Site
							{
								OFFSET 0.00000 0.00001 5.38279
							}
						}
					}
					JOINT RightShoulder
					{
						OFFSET -1.14808 -1.91346 6.19963
						CHANNELS 3 Xrotation Yrotation Zrotation
						JOINT RightArm
						{
							OFFSET -5.70212 0.00000 0.00000
							CHANNELS 3 Xrotation Yrotation Zrotation
							JOINT RightForeArm
							{
								OFFSET -10.82477 0.00000 0.00000
								CHANNELS 3 Xrotation Yrotation Zrotation
								JOINT RightHand
								{
									OFFSET -10.02856 0.00000 0.00000
									CHANNELS 3 Xrotation Yrotation Zrotation
									JOINT RightHandEnd
									{
										OFFSET -2.68345 0.00000 0.00000
										CHANNELS 3 Xrotation Yrotation Zrotation
										End Site
										{
											OFFSET -2.68345 0.00000 0.00000
										}
									}
									JOINT RightHandThumb1
									{
										OFFSET -1.07338 -1.78897 -0.71559
										CHANNELS 3 Yrotation Xrotation Zrotation
										End Site
										{
											OFFSET -2.59202 -0.69453 0.00000
										}
									}
								}
							}
						}
					}
					JOINT LeftShoulder
					{
						OFFSET 1.14808 -1.91346 6.19963
						CHANNELS 3 Xrotation Yrotation Zrotation
						JOINT LeftArm
						{
							OFFSET 5.70212 0.00000 0.00000
							CHANNELS 3 Xrotation Yrotation Zrotation
							JOINT LeftForeArm
							{
								OFFSET 10.82477 0.00000 0.00000
								CHANNELS 3 Xrotation Yrotation Zrotation
								JOINT LeftHand
								{
									OFFSET 10.02856 0.00000 0.00000
									CHANNELS 3 Xrotation Yrotation Zrotation
									JOINT LeftHandEnd
									{
										OFFSET 2.68345 0.00000 0.00000
										CHANNELS 3 Xrotation Yrotation Zrotation
										End Site
										{
											OFFSET 2.68345 0.00000 0.00000
										}
									}
									JOINT LeftHandThumb1
									{
										OFFSET 1.07338 -1.78897 -0.71559
										CHANNELS 3 Yrotation Xrotation Zrotation
										End Site
										{
											OFFSET 2.59202 -0.69453 0.00000
										}
									}
								}
							}
						}
					}
				}
			}
		}
	}
	JOINT RightUpLeg
	{
		OFFSET -3.40597 0.00000 -0.99500
		CHANNELS 3 Xrotation Yrotation Zrotation
		JOINT RightLeg
		{
			OFFSET 0.00001 0.00000 -17.05191
			CHANNELS 3 Xrotation Yrotation Zrotation
			JOINT RightFoot
			{
				OFFSET 0.00001 0.00000 -15.93260
				CHANNELS 3 Xrotation Yrotation Zrotation
				JOINT RightToeBase
				{
					OFFSET 0.00000 -4.98016 -1.81263
					CHANNELS 3 Xrotation Yrotation Zrotation
					End Site
					{
						OFFSET 0.00000 -2.75539 -0.00000
					}
				}
			}
		}
	}
	JOINT LeftUpLeg
	{
		OFFSET 3.40597 0.00000 -0.99500
		CHANNELS 3 Xrotation Yrotation Zrotation
		JOINT LeftLeg
		{
			OFFSET 0.00001 0.00000 -17.05191
			CHANNELS 3 Xrotation Yrotation Zrotation
			JOINT LeftFoot
			{
				OFFSET 0.00001 0.00000 -15.93260
				CHANNELS 3 Xrotation Yrotation Zrotation
				JOINT LeftToeBase
				{
					OFFSET 0.00000 -4.98016 -1.81263
					CHANNELS 3 Xrotation Yrotation Zrotation
					End Site
					{
						OFFSET 0.00000 -2.75539 -0.00000
					}
				}
			}
		}
	}
}
MOTION
Frames: 16
Frame Time: 0.008342
 2.6336 87.1044 35.1911 3.0466 -0.2037 -0.3070 -2.3541 -0.4810 1.2159 -0.5516 -0.8441 0.0800 0.0023 -1.3809 1.4567 -0.2378 -0.6983 0.8243 2.7504 -1.4079 -1.2013 -2.8497 0.6870 -0.9500 -5.7357 17.2240 -2.1391 -16.0211 -18.5321 -6.7510 0.0000 0.0000 15.8060 -11.6797 21.9121 5.7129 0.0000 0.0000 -0.0000 0.0000 0.0000 -0.0000 0.1010 -11.8139 3.6997 -7.1115 20.3432 -1.5635 -0.0000 -0.0000 -14.0828 -7.8024 -31.9944 0.9493 0.0000 0.0000 -0.0000 -0.0000 0.0000 0.0000 -3.5459 -3.0651 -40.3392 0.7860 0.0000 0.0000 -8.5173 -4.3266 -1.1504 5.1935 0.0000 0.0000 -7.0843 -2.1083 19.2588 10.9252 0.0000 0.0000 -11.7343 6.2852 22.5403 2.3422 0.0000 0.0000
 2.6427 87.0996 35.1931 3.0425 -0.2234 -0.2866 -2.3488 -0.4560 1.2058 -0.5459 -0.8453 0.0777 -0.0075 -1.3681 1.4519 -0.2405 -0.6964 0.8195 2.7480 -1.4412 -1.1909 -2.8506 0.6912 -0.9315 -5.7336 17.2319 -2.1372 -15.9908 -18.5696 -6.7595 0.0000 0.0000 15.7540 -11.6598 21.9095 5.7105 -0.0000 -0.0000 -0.0000 -0.0000 -0.0000 0.0000 0.1047 -11.8168 3.6985 -6.9937 20.3287 -1.6290 -0.0000 -0.0000 -14.0424 -7.7531 -31.9643 0.8215 0.0000 0.0000 -0.0000 0.0000 0.0000 0.0000 -3.5362 -3.0270 -40.3285 0.7937 0.0000 0.0000 -8.5284 -4.3173 -1.1833 5.2207 0.0000 0.0000 -7.0159 -2.0574 19.3390 10.8081 0.0000 0.0000 -11.6761 6.2886 22.4645 2.3387 0.0000 0.0000
 2.6555 87.0935 35.1956 3.0441 -0.2466 -0.2627 -2.3483 -0.4301 1.1922 -0.5419 -0.8427 0.0793 -0.0145 -1.3518 1.4482 -0.2453 -0.6929 0.8097 2.7429 -1.4850 -1.1777 -2.8519 0.6977 -0.9050 -5.7285 17.2408 -2.1357 -15.9514 -18.6160 -6.7704 0.0000 0.0000 15.6804 -11.6338 21.9076 5.7073 -0.0000 0.0000 -0.0000 0.0000 -0.0000 -0.0000 0.1067 -11.8214 3.6926 -6.8414 20.3104 -1.7089 -0.0000 -0.0000 -13.9920 -7.6881 -31.9288 0.6582 0.0000 0.0000 -0.0000 -0.0000 0.0000 0.0000 -3.5323 -2.9780 -40.3079 0.8068 0.0000 0.0000 -8.5433 -4.3055 -1.2297 5.2563 0.0000 0.0000 -6.9298 -1.9935 19.4735 10.6484 0.0000 0.0000 -11.5959 6.2909 22.3366 2.3343 0.0000 0.0000
 2.6723 87.0856 35.1986 3.0447 -0.2776 -0.2328 -2.3458 -0.3943 1.1758 -0.5376 -0.8391 0.0778 -0.0229 -1.3358 1.4415 -0.2502 -0.6893 0.8015 2.7347 -1.5351 -1.1586 -2.8544 0.7082 -0.8716 -5.7195 17.2559 -2.1329 -15.9029 -18.6722 -6.7823 0.0000 0.0000 15.5821 -11.6029 21.9071 5.7039 0.0000 -0.0000 -0.0000 0.0000 -0.0000 0.0000 0.1086 -11.8239 3.6870 -6.6617 20.2887 -1.8036 -0.0000 -0.0000 -13.9337 -7.6104 -31.8893 0.4662 -0.0000 -0.0000 -0.0000 0.0000 -0.0000 0.0000 -3.5254 -2.9132 -40.2882 0.8235 0.0000 0.0000 -8.5632 -4.2906 -1.2801 5.2980 0.0000 0.0000 -6.8170 -1.9104 19.6597 10.4430 0.0000 0.0000 -11.4928 6.2974 22.1566 2.3298 0.0000 0.0000
 2.6932 87.0761 35.2022 3.0467 -0.3130 -0.1990 -2.3439 -0.3536 1.1543 -0.5338 -0.8363 0.0771 -0.0305 -1.3175 1.4354 -0.2556 -0.6839 0.7919 2.7223 -1.5916 -1.1338 -2.8580 0.7237 -0.8313 -5.7066 17.2756 -2.1299 -15.8478 -18.7360 -6.7957 0.0000 0.0000 15.4612 -11.5727 21.9083 5.7019 0.0000 -0.0000 0.0000 0.0000 0.0000 -0.0000 0.1090 -11.8253 3.6814 -6.4602 20.2637 -1.9097 -0.0000 -0.0000 -13.8708 -7.5166 -31.8484 0.2630 -0.0000 -0.0000 0.0000 0.0000 0.0000 0.0000 -3.5191 -2.8363 -40.2651 0.8448 0.0000 0.0000 -8.5872 -4.2742 -1.3367 5.3456 0.0000 0.0000 -6.6812 -1.8132 19.9122 10.1940 0.0000 0.0000 -11.3667 6.3079 21.9098 2.3230 0.0000 0.0000
 2.7179 87.0639 35.2062 3.0297 -0.3540 -0.1655 -2.3229 -0.3073 1.1325 -0.5298 -0.8331 0.0770 -0.0395 -1.2978 1.4303 -0.2602 -0.6798 0.7792 2.7071 -1.6488 -1.1035 -2.8660 0.7438 -0.7846 -5.6871 17.3029 -2.1269 -15.7906 -18.8054 -6.8101 0.0000 0.0000 15.3209 -11.5435 21.9095 5.6986 -0.0000 0.0000 -0.0000 -0.0000 -0.0000 0.0000 0.1117 -11.8279 3.6779 -6.2552 20.2424 -2.0194 -0.0000 -0.0000 -13.8064 -7.4135 -31.8067 0.0537 0.0000 -0.0000 -0.0000 -0.0000 0.0000 0.0000 -3.4884 -2.7480 -40.2429 0.8654 0.0000 0.0000 -8.6137 -4.2601 -1.3904 5.3963 0.0000 0.0000 -6.4966 -1.7008 20.2411 9.8970 0.0000 0.0000 -11.2176 6.3284 21.5889 2.3147 0.0000 0.0000
 2.7457 87.0530 35.2101 3.0526 -0.3932 -0.1296 -2.3379 -0.2624 1.1061 -0.5270 -0.8320 0.0755 -0.0466 -1.2762 1.4257 -0.2648 -0.6764 0.7675 2.6842 -1.7058 -1.0655 -2.8700 0.7703 -0.7346 -5.6651 17.3281 -2.1231 -15.7360 -18.8691 -6.8258 0.0000 0.0000 15.1685 -11.5212 21.9157 5.6963 -0.0000 0.0000 -0.0000 -0.0000 -0.0000 0.0000 0.1088 -11.8223 3.6764 -6.0520 20.2174 -2.1275 -0.0000 -0.0000 -13.7462 -7.3080 -31.7740 -0.1443 -0.0000 -0.0000 0.0000 0.0000 0.0000 0.0000 -3.5048 -2.6539 -40.2136 0.8957 0.0000 0.0000 -8.6424 -4.2412 -1.4523 5.4487 0.0000 0.0000 -6.3453 -1.5845 20.6257 9.5808 0.0000 0.0000 -11.0539 6.3526 21.2086 2.3025 0.0000 0.0000
 2.7766 87.0389 35.2143 3.0420 -0.4382 -0.0982 -2.3211 -0.2121 1.0780 -0.5250 -0.8311 0.0752 -0.0526 -1.2594 1.4242 -0.2683 -0.6716 0.7565 2.6598 -1.7557 -1.0243 -2.8804 0.8020 -0.6799 -5.6371 17.3642 -2.1203 -15.6871 -18.9341 -6.8436 0.0000 0.0000 15.0071 -11.5073 21.9208 5.6939 -0.0000 -0.0000 -0.0000 0.0000 -0.0000 -0.0000 0.1078 -11.8178 3.6773 -5.8693 20.2011 -2.2257 -0.0000 -0.0000 -13.6932 -7.2064 -31.7441 -0.3223 0.0000 -0.0000 0.0000 0.0000 0.0000 0.0000 -3.4802 -2.5503 -40.1919 0.9226 0.0000 0.0000 -8.6722 -4.2296 -1.5002 5.4969 0.0000 0.0000 -6.1319 -1.4535 21.0846 9.2204 0.0000 0.0000 -10.8694 6.3926 20.7568 2.2869 0.0000 0.0000
 2.8094 87.0267 35.2182 3.0695 -0.4790 -0.0704 -2.3374 -0.1685 1.0494 -0.5267 -0.8315 0.0742 -0.0552 -1.2398 1.4256 -0.2715 -0.6703 0.7462 2.6281 -1.7975 -0.9785 -2.8865 0.8388 -0.6235 -5.6073 17.3954 -2.1177 -15.6499 -18.9835 -6.8638 0.0000 0.0000 14.8482 -11.5061 21.9342 5.6914 0.0000 -0.0000 0.0000 -0.0000 0.0000 0.0000 0.1049 -11.8048 3.6826 -5.7210 20.1876 -2.3092 -0.0000 -0.0000 -13.6515 -7.1112 -31.7270 -0.4669 0.0000 0.0000 0.0000 0.0000 0.0000 0.0000 -3.5013 -2.4464 -40.1620 0.9571 0.0000 0.0000 -8.7012 -4.2164 -1.5513 5.5417 0.0000 0.0000 -5.9571 -1.3242 21.5901 8.8540 0.0000 0.0000 -10.6769 6.4396 20.2575 2.2663 0.0000 0.0000
 2.8438 87.0123 35.2222 3.0673 -0.5225 -0.0497 -2.3244 -0.1232 1.0196 -0.5300 -0.8325 0.0737 -0.0567 -1.2268 1.4305 -0.2730 -0.6682 0.7379 2.5952 -1.8272 -0.9278 -2.8983 0.8817 -0.5676 -5.5726 17.4351 -2.1160 -15.6271 -19.0272 -6.8876 0.0000 0.0000 14.6963 -11.5204 21.9476 5.6887 0.0000 -0.0000 -0.0000 -0.0000 -0.0000 -0.0000 0.1029 -11.7920 3.6926 -5.6132 20.1865 -2.3715 -0.0000 -0.0000 -13.6237 -7.0305 -31.7165 -0.5729 -0.0000 0.0000 0.0000 -0.0000 0.0000 0.0000 -3.4862 -2.3387 -40.1427 0.9865 0.0000 0.0000 -8.7280 -4.2129 -1.5835 5.5802 0.0000 0.0000 -5.7343 -1.1860 22.1457 8.4604 0.0000 0.0000 -10.4716 6.5038 19.7102 2.2399 0.0000 0.0000
 2.8789 87.0005 35.2256 3.1037 -0.5613 -0.0346 -2.3461 -0.0841 0.9892 -0.5352 -0.8348 0.0728 -0.0562 -1.2156 1.4397 -0.2736 -0.6688 0.7315 2.5561 -1.8428 -0.8751 -2.9050 0.9272 -0.5126 -5.5409 17.4681 -2.1153 -15.6235 -19.0493 -6.9167 0.0000 0.0000 14.5645 -11.5435 21.9677 5.6817 0.0000 0.0000 0.0000 -0.0000 0.0000 -0.0000 0.0983 -11.7696 3.7061 -5.5533 20.1904 -2.4091 -0.0000 -0.0000 -13.6117 -6.9692 -31.7202 -0.6366 -0.0000 0.0000 0.0000 -0.0000 -0.0000 0.0000 -3.5182 -2.2331 -40.1201 1.0225 0.0000 0.0000 -8.7517 -4.2105 -1.6127 5.6112 0.0000 0.0000 -5.5593 -1.0515 22.7133 8.0739 0.0000 0.0000 -10.2651 6.5745 19.1504 2.2074 0.0000 0.0000
 2.9142 86.9883 35.2289 3.1307 -0.5998 -0.0274 -2.3563 -0.0474 0.9588 -0.5436 -0.8370 0.0719 -0.0539 -1.2095 1.4528 -0.2731 -0.6703 0.7281 2.5163 -1.8446 -0.8211 -2.9143 0.9767 -0.4586 -5.5093 17.5023 -2.1159 -15.6391 -19.0578 -6.9514 0.0000 0.0000 14.4555 -11.5873 21.9916 5.6783 0.0000 -0.0000 -0.0000 -0.0000 -0.0000 0.0000 0.0932 -11.7445 3.7244 -5.5434 20.2055 -2.4206 -0.0000 -0.0000 -13.6141 -6.9207 -31.7322 -0.6565 0.0000 0.0000 -0.0000 0.0000 -0.0000 0.0000 -3.5392 -2.1283 -40.1047 1.0557 0.0000 0.0000 -8.7710 -4.2167 -1.6268 5.6336 0.0000 0.0000 -5.3716 -0.9141 23.2876 7.6814 0.0000 0.0000 -10.0554 6.6571 18.5860 2.1693 0.0000 0.0000
 2.9490 86.9769 35.2319 3.1613 -0.6353 -0.0276 -2.3673 -0.0158 0.9287 -0.5540 -0.8395 0.0718 -0.0510 -1.2062 1.4705 -0.2719 -0.6739 0.7263 2.4751 -1.8333 -0.7666 -2.9226 1.0289 -0.4073 -5.4815 17.5331 -2.1177 -15.6728 -19.0489 -6.9925 0.0000 0.0000 14.3768 -11.6403 22.0200 5.6697 0.0000 -0.0000 0.0000 -0.0000 -0.0000 0.0000 0.0900 -11.7169 3.7468 -5.5808 20.2307 -2.4073 -0.0000 -0.0000 -13.6286 -6.9028 -31.7529 -0.6483 0.0000 0.0000 -0.0000 -0.0000 0.0000 0.0000 -3.5648 -2.0279 -40.0935 1.0873 0.0000 0.0000 -8.7844 -4.2310 -1.6299 5.6473 0.0000 0.0000 -5.1921 -0.7786 23.8441 7.2940 0.0000 0.0000 -9.8478 6.7461 18.0411 2.1253 0.0000 0.0000
 2.9830 86.9665 35.2347 3.1970 -0.6686 -0.0336 -2.3805 0.0122 0.8984 -0.5669 -0.8416 0.0718 -0.0472 -1.2067 1.4918 -0.2706 -0.6789 0.7269 2.4337 -1.8102 -0.7123 -2.9304 1.0814 -0.3590 -5.4573 17.5592 -2.1219 -15.7276 -19.0243 -7.0412 0.0000 0.0000 14.3324 -11.6996 22.0521 5.6578 -0.0000 -0.0000 -0.0000 -0.0000 -0.0000 -0.0000 0.0862 -11.6859 3.7725 -5.6564 20.2626 -2.3723 -0.0000 -0.0000 -13.6527 -6.9023 -31.7807 -0.6102 0.0000 0.0000 -0.0000 0.0000 -0.0000 -0.0000 -3.5969 -1.9313 -40.0878 1.1177 0.0000 0.0000 -8.7919 -4.2531 -1.6229 5.6528 0.0000 0.0000 -5.0250 -0.6442 24.3618 6.9147 0.0000 0.0000 -9.6443 6.8387 17.5359 2.0763 0.0000 0.0000
 3.0158 86.9570 35.2373 3.2383 -0.6992 -0.0441 -2.3963 0.0368 0.8672 -0.5824 -0.8433 0.0723 -0.0427 -1.2099 1.5162 -0.2691 -0.6846 0.7296 2.3929 -1.7794 -0.6597 -2.9375 1.1343 -0.3124 -5.4404 17.5797 -2.1270 -15.7951 -18.9866 -7.0959 0.0000 0.0000 14.3212 -11.7663 22.0879 5.6474 -0.0000 -0.0000 -0.0000 0.0000 -0.0000 -0.0000 0.0817 -11.6529 3.8007 -5.7590 20.2983 -2.3204 -0.0000 -0.0000 -13.6806 -6.9244 -31.8134 -0.5607 -0.0000 -0.0000 -0.0000 0.0000 -0.0000 0.0000 -3.6361 -1.8393 -40.0863 1.1465 0.0000 0.0000 -8.7934 -4.2822 -1.6089 5.6513 0.0000 0.0000 -4.8724 -0.5118 24.8237 6.5463 0.0000 0.0000 -9.4475 6.9307 17.0875 2.0239 0.0000 0.0000
 3.0473 86.9484 35.2397 3.2840 -0.7282 -0.0582 -2.4132 0.0592 0.8366 -0.5992 -0.8436 0.0727 -0.0393 -1.2156 1.5422 -0.2681 -0.6914 0.7346 2.3538 -1.7429 -0.6096 -2.9442 1.1855 -0.2672 -5.4298 17.5940 -2.1348 -15.8735 -18.9386 -7.1557 0.0000 0.0000 14.3430 -11.8333 22.1245 5.6357 0.0000 -0.0000 0.0000 0.0000 0.0000 -0.0000 0.0775 -11.6187 3.8300 -5.8785 20.3359 -2.2559 -0.0000 -0.0000 -13.7096 -6.9617 -31.8481 -0.5057 0.0000 0.0000 0.0000 -0.0000 0.0000 0.0000 -3.6807 -1.7510 -40.0892 1.1738 0.0000 0.0000 -8.7894 -4.3175 -1.5890 5.6444 0.0000 0.0000 -4.7330 -0.3806 25.2174 6.1889 0.0000 0.0000 -9.2583 7.0196 16.7085 1.9692 0.0000 0.0000
